<mxfile host="app.diagrams.net" agent="Mozilla/5.0 (Macintosh; Intel Mac OS X 10_15_7) AppleWebKit/537.36 (KHTML, like Gecko) Chrome/127.0.0.0 Safari/537.36" version="24.7.16">
  <diagram id="C5RBs43oDa-KdzZeNtuy" name="Page-1">
    <mxGraphModel dx="1242" dy="820" grid="1" gridSize="10" guides="1" tooltips="1" connect="1" arrows="1" fold="1" page="1" pageScale="1" pageWidth="827" pageHeight="1169" math="0" shadow="0">
      <root>
        <mxCell id="WIyWlLk6GJQsqaUBKTNV-0" />
        <mxCell id="WIyWlLk6GJQsqaUBKTNV-1" parent="WIyWlLk6GJQsqaUBKTNV-0" />
        <mxCell id="NIHlqaGPpaUAOa7Kcn0H-17" style="edgeStyle=orthogonalEdgeStyle;rounded=0;orthogonalLoop=1;jettySize=auto;html=1;" edge="1" parent="WIyWlLk6GJQsqaUBKTNV-1" source="WIyWlLk6GJQsqaUBKTNV-3" target="NIHlqaGPpaUAOa7Kcn0H-1">
          <mxGeometry relative="1" as="geometry" />
        </mxCell>
        <mxCell id="WIyWlLk6GJQsqaUBKTNV-3" value="Начало" style="rounded=1;whiteSpace=wrap;html=1;fontSize=12;glass=0;strokeWidth=1;shadow=0;" parent="WIyWlLk6GJQsqaUBKTNV-1" vertex="1">
          <mxGeometry x="160" y="80" width="120" height="40" as="geometry" />
        </mxCell>
        <mxCell id="NIHlqaGPpaUAOa7Kcn0H-18" style="edgeStyle=orthogonalEdgeStyle;rounded=0;orthogonalLoop=1;jettySize=auto;html=1;" edge="1" parent="WIyWlLk6GJQsqaUBKTNV-1" source="NIHlqaGPpaUAOa7Kcn0H-1" target="NIHlqaGPpaUAOa7Kcn0H-2">
          <mxGeometry relative="1" as="geometry" />
        </mxCell>
        <mxCell id="NIHlqaGPpaUAOa7Kcn0H-1" value="Создание объекта ProcurementDepartment" style="rounded=0;whiteSpace=wrap;html=1;" vertex="1" parent="WIyWlLk6GJQsqaUBKTNV-1">
          <mxGeometry x="150" y="150" width="140" height="70" as="geometry" />
        </mxCell>
        <mxCell id="NIHlqaGPpaUAOa7Kcn0H-19" style="edgeStyle=orthogonalEdgeStyle;rounded=0;orthogonalLoop=1;jettySize=auto;html=1;entryX=0.5;entryY=0;entryDx=0;entryDy=0;" edge="1" parent="WIyWlLk6GJQsqaUBKTNV-1" source="NIHlqaGPpaUAOa7Kcn0H-2" target="NIHlqaGPpaUAOa7Kcn0H-3">
          <mxGeometry relative="1" as="geometry" />
        </mxCell>
        <mxCell id="NIHlqaGPpaUAOa7Kcn0H-2" value="Создание объекта Project с названием" style="rounded=0;whiteSpace=wrap;html=1;" vertex="1" parent="WIyWlLk6GJQsqaUBKTNV-1">
          <mxGeometry x="150" y="240" width="140" height="70" as="geometry" />
        </mxCell>
        <mxCell id="NIHlqaGPpaUAOa7Kcn0H-20" style="edgeStyle=orthogonalEdgeStyle;rounded=0;orthogonalLoop=1;jettySize=auto;html=1;" edge="1" parent="WIyWlLk6GJQsqaUBKTNV-1" source="NIHlqaGPpaUAOa7Kcn0H-3" target="NIHlqaGPpaUAOa7Kcn0H-4">
          <mxGeometry relative="1" as="geometry" />
        </mxCell>
        <mxCell id="NIHlqaGPpaUAOa7Kcn0H-3" value="Добавление проекта в отдел" style="rounded=0;whiteSpace=wrap;html=1;" vertex="1" parent="WIyWlLk6GJQsqaUBKTNV-1">
          <mxGeometry x="150" y="330" width="140" height="70" as="geometry" />
        </mxCell>
        <mxCell id="NIHlqaGPpaUAOa7Kcn0H-21" style="edgeStyle=orthogonalEdgeStyle;rounded=0;orthogonalLoop=1;jettySize=auto;html=1;entryX=0.5;entryY=0;entryDx=0;entryDy=0;" edge="1" parent="WIyWlLk6GJQsqaUBKTNV-1" source="NIHlqaGPpaUAOa7Kcn0H-4" target="NIHlqaGPpaUAOa7Kcn0H-5">
          <mxGeometry relative="1" as="geometry" />
        </mxCell>
        <mxCell id="NIHlqaGPpaUAOa7Kcn0H-4" value="Создание задачи task1 (Task)" style="rounded=0;whiteSpace=wrap;html=1;" vertex="1" parent="WIyWlLk6GJQsqaUBKTNV-1">
          <mxGeometry x="150" y="420" width="140" height="70" as="geometry" />
        </mxCell>
        <mxCell id="NIHlqaGPpaUAOa7Kcn0H-22" style="edgeStyle=orthogonalEdgeStyle;rounded=0;orthogonalLoop=1;jettySize=auto;html=1;entryX=0.5;entryY=0;entryDx=0;entryDy=0;" edge="1" parent="WIyWlLk6GJQsqaUBKTNV-1" source="NIHlqaGPpaUAOa7Kcn0H-5" target="NIHlqaGPpaUAOa7Kcn0H-6">
          <mxGeometry relative="1" as="geometry" />
        </mxCell>
        <mxCell id="NIHlqaGPpaUAOa7Kcn0H-5" value="Создание задачи task2 (Task)" style="rounded=0;whiteSpace=wrap;html=1;" vertex="1" parent="WIyWlLk6GJQsqaUBKTNV-1">
          <mxGeometry x="150" y="510" width="140" height="70" as="geometry" />
        </mxCell>
        <mxCell id="NIHlqaGPpaUAOa7Kcn0H-23" style="edgeStyle=orthogonalEdgeStyle;rounded=0;orthogonalLoop=1;jettySize=auto;html=1;entryX=0.5;entryY=0;entryDx=0;entryDy=0;" edge="1" parent="WIyWlLk6GJQsqaUBKTNV-1" source="NIHlqaGPpaUAOa7Kcn0H-6" target="NIHlqaGPpaUAOa7Kcn0H-7">
          <mxGeometry relative="1" as="geometry" />
        </mxCell>
        <mxCell id="NIHlqaGPpaUAOa7Kcn0H-6" value="Добавление task1 в проект" style="rounded=0;whiteSpace=wrap;html=1;" vertex="1" parent="WIyWlLk6GJQsqaUBKTNV-1">
          <mxGeometry x="150" y="600" width="140" height="70" as="geometry" />
        </mxCell>
        <mxCell id="NIHlqaGPpaUAOa7Kcn0H-24" style="edgeStyle=orthogonalEdgeStyle;rounded=0;orthogonalLoop=1;jettySize=auto;html=1;entryX=0.5;entryY=0;entryDx=0;entryDy=0;" edge="1" parent="WIyWlLk6GJQsqaUBKTNV-1" source="NIHlqaGPpaUAOa7Kcn0H-7" target="NIHlqaGPpaUAOa7Kcn0H-8">
          <mxGeometry relative="1" as="geometry" />
        </mxCell>
        <mxCell id="NIHlqaGPpaUAOa7Kcn0H-7" value="Добавление task2 в проект" style="rounded=0;whiteSpace=wrap;html=1;" vertex="1" parent="WIyWlLk6GJQsqaUBKTNV-1">
          <mxGeometry x="150" y="690" width="140" height="70" as="geometry" />
        </mxCell>
        <mxCell id="NIHlqaGPpaUAOa7Kcn0H-25" style="edgeStyle=orthogonalEdgeStyle;rounded=0;orthogonalLoop=1;jettySize=auto;html=1;entryX=0.5;entryY=0;entryDx=0;entryDy=0;" edge="1" parent="WIyWlLk6GJQsqaUBKTNV-1" source="NIHlqaGPpaUAOa7Kcn0H-8" target="NIHlqaGPpaUAOa7Kcn0H-9">
          <mxGeometry relative="1" as="geometry" />
        </mxCell>
        <mxCell id="NIHlqaGPpaUAOa7Kcn0H-8" value="Отображение всех задач (DisplayAllProjects)" style="rounded=0;whiteSpace=wrap;html=1;" vertex="1" parent="WIyWlLk6GJQsqaUBKTNV-1">
          <mxGeometry x="150" y="780" width="140" height="70" as="geometry" />
        </mxCell>
        <mxCell id="NIHlqaGPpaUAOa7Kcn0H-26" style="edgeStyle=orthogonalEdgeStyle;rounded=0;orthogonalLoop=1;jettySize=auto;html=1;" edge="1" parent="WIyWlLk6GJQsqaUBKTNV-1" source="NIHlqaGPpaUAOa7Kcn0H-9" target="NIHlqaGPpaUAOa7Kcn0H-10">
          <mxGeometry relative="1" as="geometry" />
        </mxCell>
        <mxCell id="NIHlqaGPpaUAOa7Kcn0H-9" value="Изменение статуса task1 (ChangeStatus)" style="rounded=0;whiteSpace=wrap;html=1;" vertex="1" parent="WIyWlLk6GJQsqaUBKTNV-1">
          <mxGeometry x="150" y="870" width="140" height="70" as="geometry" />
        </mxCell>
        <mxCell id="NIHlqaGPpaUAOa7Kcn0H-27" style="edgeStyle=orthogonalEdgeStyle;rounded=0;orthogonalLoop=1;jettySize=auto;html=1;" edge="1" parent="WIyWlLk6GJQsqaUBKTNV-1" source="NIHlqaGPpaUAOa7Kcn0H-10" target="NIHlqaGPpaUAOa7Kcn0H-11">
          <mxGeometry relative="1" as="geometry" />
        </mxCell>
        <mxCell id="NIHlqaGPpaUAOa7Kcn0H-10" value="Отображение задач для Иванова Ивана (DisplayResponsible)" style="rounded=0;whiteSpace=wrap;html=1;" vertex="1" parent="WIyWlLk6GJQsqaUBKTNV-1">
          <mxGeometry x="150" y="960" width="140" height="70" as="geometry" />
        </mxCell>
        <mxCell id="NIHlqaGPpaUAOa7Kcn0H-28" style="edgeStyle=orthogonalEdgeStyle;rounded=0;orthogonalLoop=1;jettySize=auto;html=1;" edge="1" parent="WIyWlLk6GJQsqaUBKTNV-1" source="NIHlqaGPpaUAOa7Kcn0H-11" target="NIHlqaGPpaUAOa7Kcn0H-12">
          <mxGeometry relative="1" as="geometry" />
        </mxCell>
        <mxCell id="NIHlqaGPpaUAOa7Kcn0H-11" value="Создание новой задачи task3 (Task)" style="rounded=0;whiteSpace=wrap;html=1;" vertex="1" parent="WIyWlLk6GJQsqaUBKTNV-1">
          <mxGeometry x="150" y="1050" width="140" height="70" as="geometry" />
        </mxCell>
        <mxCell id="NIHlqaGPpaUAOa7Kcn0H-29" style="edgeStyle=orthogonalEdgeStyle;rounded=0;orthogonalLoop=1;jettySize=auto;html=1;entryX=0.5;entryY=0;entryDx=0;entryDy=0;" edge="1" parent="WIyWlLk6GJQsqaUBKTNV-1" source="NIHlqaGPpaUAOa7Kcn0H-12" target="NIHlqaGPpaUAOa7Kcn0H-13">
          <mxGeometry relative="1" as="geometry" />
        </mxCell>
        <mxCell id="NIHlqaGPpaUAOa7Kcn0H-12" value="Добавление task3 в проект" style="rounded=0;whiteSpace=wrap;html=1;" vertex="1" parent="WIyWlLk6GJQsqaUBKTNV-1">
          <mxGeometry x="150" y="1140" width="140" height="70" as="geometry" />
        </mxCell>
        <mxCell id="NIHlqaGPpaUAOa7Kcn0H-30" style="edgeStyle=orthogonalEdgeStyle;rounded=0;orthogonalLoop=1;jettySize=auto;html=1;" edge="1" parent="WIyWlLk6GJQsqaUBKTNV-1" source="NIHlqaGPpaUAOa7Kcn0H-13" target="NIHlqaGPpaUAOa7Kcn0H-16">
          <mxGeometry relative="1" as="geometry" />
        </mxCell>
        <mxCell id="NIHlqaGPpaUAOa7Kcn0H-13" value="Отображение обновленного списка задач (DisplayAllProjects)" style="rounded=0;whiteSpace=wrap;html=1;" vertex="1" parent="WIyWlLk6GJQsqaUBKTNV-1">
          <mxGeometry x="150" y="1230" width="140" height="70" as="geometry" />
        </mxCell>
        <mxCell id="NIHlqaGPpaUAOa7Kcn0H-16" value="Конец" style="rounded=1;whiteSpace=wrap;html=1;fontSize=12;glass=0;strokeWidth=1;shadow=0;" vertex="1" parent="WIyWlLk6GJQsqaUBKTNV-1">
          <mxGeometry x="160" y="1320" width="120" height="40" as="geometry" />
        </mxCell>
      </root>
    </mxGraphModel>
  </diagram>
</mxfile>
